HIERARCHY
ROOT joint_Root
{
	OFFSET 0.0 0.0 0.0
	CHANNELS 6 Xposition Yposition Zposition Zrotation Xrotation Yrotation 
	JOINT Hips
	{
		OFFSET -17.1583 93.1646 452.98
		CHANNELS 6 Xposition Yposition Zposition Zrotation Xrotation Yrotation 
		JOINT Spine
		{
			OFFSET 15.7357 0.0 0.0
			CHANNELS 6 Xposition Yposition Zposition Zrotation Xrotation Yrotation 
			JOINT Chest
			{
				OFFSET 8.98455 -0.406207 0.0
				CHANNELS 6 Xposition Yposition Zposition Zrotation Xrotation Yrotation 
				JOINT Neck
				{
					OFFSET 16.3773 0.0 0.0
					CHANNELS 6 Xposition Yposition Zposition Zrotation Xrotation Yrotation 
					JOINT Head
					{
						OFFSET 6.45672 0.0 0.0
						CHANNELS 6 Xposition Yposition Zposition Zrotation Xrotation Yrotation 
						End Site
						{
							OFFSET 0.0 0.0 0.0
						}
					}
				}
				JOINT Shoulder_L
				{
					OFFSET 12.9942 -0.242716 4.98039
					CHANNELS 6 Xposition Yposition Zposition Zrotation Xrotation Yrotation 
					JOINT UpperArm_L
					{
						OFFSET 5.34809 0.0 0.0
						CHANNELS 6 Xposition Yposition Zposition Zrotation Xrotation Yrotation 
						JOINT LowerArm_L
						{
							OFFSET 24.3286 1.87007e-05 0.0
							CHANNELS 6 Xposition Yposition Zposition Zrotation Xrotation Yrotation 
							JOINT Hand_L
							{
								OFFSET 22.2916 0.0 0.0
								CHANNELS 6 Xposition Yposition Zposition Zrotation Xrotation Yrotation 
								End Site
								{
									OFFSET 0.0 0.0 0.0
								}
							}
						}
					}
				}
				JOINT Shoulder_R
				{
					OFFSET 12.9945 -0.242716 -4.98039
					CHANNELS 6 Xposition Yposition Zposition Zrotation Xrotation Yrotation 
					JOINT UpperArm_R
					{
						OFFSET -5.34813 0.0 0.0
						CHANNELS 6 Xposition Yposition Zposition Zrotation Xrotation Yrotation 
						JOINT LowerArm_R
						{
							OFFSET -24.3289 0.000322201 0.0
							CHANNELS 6 Xposition Yposition Zposition Zrotation Xrotation Yrotation 
							JOINT Hand_R
							{
								OFFSET -22.2915 -0.000108084 0.0
								CHANNELS 6 Xposition Yposition Zposition Zrotation Xrotation Yrotation 
								End Site
								{
									OFFSET 0.0 0.0 0.0
								}
							}
						}
					}
				}
			}
		}
		JOINT UpperLeg_L
		{
			OFFSET -2.19248 -6.46944 0.0
			CHANNELS 6 Xposition Yposition Zposition Zrotation Xrotation Yrotation 
			JOINT LowerLeg_L
			{
				OFFSET 39.0811 0.0 -1.23785e-05
				CHANNELS 6 Xposition Yposition Zposition Zrotation Xrotation Yrotation 
				JOINT Foot_L
				{
					OFFSET 40.9854 0.0 -1.26872e-05
					CHANNELS 6 Xposition Yposition Zposition Zrotation Xrotation Yrotation 
					JOINT Toes_L
					{
						OFFSET 11.7543 0.0 0.0
						CHANNELS 6 Xposition Yposition Zposition Zrotation Xrotation Yrotation 
						End Site
						{
							OFFSET 0.0 0.0 0.0
						}
					}
				}
			}
		}
		JOINT UpperLeg_R
		{
			OFFSET -2.19251 6.46944 0.0
			CHANNELS 6 Xposition Yposition Zposition Zrotation Xrotation Yrotation 
			JOINT LowerLeg_R
			{
				OFFSET -39.0811 -0.00228153 -0.0401928
				CHANNELS 6 Xposition Yposition Zposition Zrotation Xrotation Yrotation 
				JOINT Foot_R
				{
					OFFSET -40.9854 0.0 0.0
					CHANNELS 6 Xposition Yposition Zposition Zrotation Xrotation Yrotation 
					JOINT Toes_R
					{
						OFFSET -11.7543 0.0 0.0
						CHANNELS 6 Xposition Yposition Zposition Zrotation Xrotation Yrotation 
						End Site
						{
							OFFSET 0.0 0.0 0.0
						}
					}
				}
			}
		}
	}
}
MOTION
Frames:	9
Frame Time:	0.0333333
0.000000 0.000000 0.000000 0.000000 0.000000 -0.000000 0.790243 93.272300 -1.987090 87.371200 -1.400610 -0.132957 15.735700 0.000005 -0.000001 79.040000 88.451700 -77.392300 8.984550 -0.406207 -0.000000 -4.712920 -0.767516 3.266190 16.377300 -0.000001 -0.000001 5.478050 2.506110 -2.751400 6.456720 -0.000001 -0.000000 6.780440 2.430070 -0.815720 12.994200 -0.242716 4.980390 -92.538000 7.811350 -71.937400 5.348090 -0.000007 -0.000001 -73.173100 32.534600 1.582740 24.328600 0.000019 0.000005 12.501400 27.746100 -25.466000 22.291600 -0.000001 0.000005 -3.278060 4.960510 8.148200 12.994500 -0.242716 -4.980390 88.543900 4.653870 -72.605000 -5.348130 -0.000001 -0.000004 -72.163300 26.143900 0.760917 -24.328900 0.000322 -0.000009 2.659400 6.188280 -23.319300 -22.291500 -0.000108 -0.000004 -2.439540 5.204660 2.602330 -2.192480 -6.469440 -0.000000 -178.211000 -1.782960 -3.635970 39.081100 -0.000007 -0.000012 0.157701 -0.499628 17.517900 40.985400 -0.000006 -0.000013 3.397230 7.826410 -69.851000 11.754300 -0.000000 0.000003 0.000374 0.161069 -10.044200 -2.192510 6.469440 -0.000001 -176.534000 4.474220 179.911000 -39.081100 -0.002282 -0.040193 0.008687 -0.025521 11.843100 -40.985400 0.000008 0.000006 -3.845040 2.617140 -67.062800 -11.754300 -0.000006 -0.000006 -0.010557 0.275424 -5.382500
0.000000 0.000000 0.000000 0.000000 0.000000 -0.000000 0.700701 93.282400 -2.036870 87.358400 -1.389410 -0.185442 15.735700 0.000005 -0.000001 78.831400 88.428900 -77.165300 8.984550 -0.406207 -0.000000 -4.669930 -0.788768 3.302340 16.377300 -0.000001 -0.000001 5.446600 2.484290 -2.625340 6.456720 -0.000001 -0.000000 6.648360 2.469630 -0.667792 12.994200 -0.242716 4.980390 -92.529900 7.784540 -71.933600 5.348090 -0.000007 -0.000001 -73.194700 32.500600 1.537770 24.328600 0.000019 0.000005 12.554600 27.861600 -25.478500 22.291600 -0.000001 0.000005 -3.222070 4.962520 8.106440 12.994500 -0.242716 -4.980390 88.512600 4.737460 -72.547300 -5.348130 -0.000001 -0.000004 -71.582700 24.294900 0.587395 -24.328900 0.000322 -0.000009 2.798050 6.255750 -24.165600 -22.291500 -0.000108 -0.000004 -2.478070 5.194530 2.855990 -2.192480 -6.469440 -0.000000 -178.144000 -1.732470 -3.710620 39.081100 -0.000007 -0.000012 0.157703 -0.500094 17.502800 40.985400 -0.000006 -0.000013 3.320030 7.776550 -69.850700 11.754300 -0.000000 0.000003 0.000308 0.162265 -9.995670 -2.192510 6.469440 -0.000001 -176.469000 4.495430 179.866000 -39.081100 -0.002282 -0.040193 0.007906 -0.021946 11.763600 -40.985400 0.000008 0.000006 -3.898610 2.662070 -66.990400 -11.754300 -0.000006 -0.000006 -0.010458 0.274697 -5.412240
0.000000 0.000000 0.000000 0.000000 0.000000 -0.000000 0.614733 93.281300 -2.091750 87.346300 -1.400200 -0.215573 15.735700 0.000005 -0.000001 78.576200 88.405100 -76.873600 8.984550 -0.406207 -0.000000 -4.625280 -0.815220 3.374570 16.377300 -0.000001 -0.000001 5.426310 2.467860 -2.515300 6.456720 -0.000001 -0.000000 6.558580 2.505170 -0.514918 12.994200 -0.242716 4.980390 -92.526000 7.779830 -71.949100 5.348090 -0.000007 -0.000001 -73.249900 32.524700 1.577160 24.328600 0.000019 0.000005 12.510700 27.702800 -25.515100 22.291600 -0.000001 0.000005 -3.247830 4.962250 8.112090 12.994500 -0.242716 -4.980390 88.490500 4.768470 -72.411600 -5.348130 -0.000001 -0.000004 -70.868900 22.265600 0.438117 -24.328900 0.000322 -0.000009 2.867830 5.986560 -25.664100 -22.291500 -0.000108 -0.000004 -2.308490 5.176560 3.300490 -2.192480 -6.469440 -0.000000 -178.077000 -1.633910 -3.810780 39.081100 -0.000007 -0.000012 0.157401 -0.497166 17.567900 40.985400 -0.000006 -0.000013 3.239950 7.684160 -69.797800 11.754300 -0.000000 0.000003 0.000466 0.159378 -10.112900 -2.192510 6.469440 -0.000001 -176.382000 4.491540 179.781000 -39.081100 -0.002282 -0.040193 0.008536 -0.024892 11.799600 -40.985400 0.000008 0.000006 -3.837610 2.628850 -66.975100 -11.754300 -0.000006 -0.000006 -0.010397 0.274246 -5.430690
0.000000 0.000000 0.000000 0.000000 0.000000 -0.000000 0.516133 93.283000 -2.140160 87.345100 -1.390440 -0.234149 15.735700 0.000005 -0.000001 77.533500 88.368400 -75.799200 8.984550 -0.406207 -0.000000 -4.564260 -0.890299 3.435480 16.377300 -0.000001 -0.000001 5.404650 2.446040 -2.336780 6.456720 -0.000001 -0.000000 6.489750 2.595730 -0.372089 12.994200 -0.242716 4.980390 -92.526400 7.763680 -71.912200 5.348090 -0.000007 -0.000001 -73.277800 32.531400 1.563410 24.328600 0.000019 0.000005 12.610800 27.909600 -25.546100 22.291600 -0.000001 0.000005 -3.416030 4.967430 8.004490 12.994500 -0.242716 -4.980390 88.468600 4.805040 -72.299300 -5.348130 -0.000001 -0.000004 -70.122100 19.499100 0.415893 -24.328900 0.000322 -0.000009 3.106920 5.851520 -28.039800 -22.291500 -0.000108 -0.000004 -2.313040 5.152750 3.877440 -2.192480 -6.469440 -0.000000 -178.009000 -1.611620 -3.898990 39.081100 -0.000007 -0.000012 0.160231 -0.504019 17.636100 40.985400 -0.000006 -0.000013 3.169200 7.698360 -69.862700 11.754300 -0.000000 0.000003 0.000211 0.163985 -9.925850 -2.192510 6.469440 -0.000001 -176.302000 4.572840 179.733000 -39.081100 -0.002282 -0.040193 0.008777 -0.026077 11.786600 -40.985400 0.000008 0.000006 -3.689700 2.669040 -66.935500 -11.754300 -0.000006 -0.000006 -0.010363 0.273996 -5.440930
0.000000 0.000000 0.000000 0.000000 0.000000 -0.000000 0.416331 93.284100 -2.186820 87.358600 -1.399030 -0.226142 15.735700 0.000005 -0.000001 76.912800 88.327500 -75.157800 8.984550 -0.406207 -0.000000 -4.491290 -0.944394 3.475210 16.377300 -0.000001 -0.000001 5.445910 2.403950 -2.100320 6.456720 -0.000001 -0.000000 6.352350 2.732370 -0.138698 12.994200 -0.242716 4.980390 -92.526400 7.762220 -71.908500 5.348090 -0.000007 -0.000001 -73.295300 32.470800 1.569500 24.328600 0.000019 0.000005 12.512300 27.668300 -25.543700 22.291600 -0.000001 0.000005 -3.444280 4.959990 8.159060 12.994500 -0.242716 -4.980390 88.444600 4.829340 -72.124100 -5.348130 -0.000001 -0.000004 -69.291100 17.024800 0.465383 -24.328900 0.000322 -0.000009 3.127520 5.187530 -31.154600 -22.291500 -0.000108 -0.000004 -1.882930 5.130180 4.413020 -2.192480 -6.469440 -0.000000 -177.948000 -1.582920 -3.923970 39.081100 -0.000007 -0.000012 0.158747 -0.498937 17.649800 40.985400 -0.000006 -0.000013 3.089800 7.688390 -69.826900 11.754300 -0.000000 0.000003 0.000410 0.160411 -10.071000 -2.192510 6.469440 -0.000001 -176.224000 4.500460 179.704000 -39.081100 -0.002282 -0.040193 0.009357 -0.028807 11.805800 -40.985400 0.000008 0.000006 -3.519380 2.567820 -66.995400 -11.754300 -0.000006 -0.000006 -0.010666 0.276217 -5.350040
0.000000 0.000000 0.000000 0.000000 0.000000 -0.000000 0.310051 93.284100 -2.235990 87.350400 -1.485530 -0.246183 15.735700 0.000005 -0.000001 76.220300 88.292300 -74.423500 8.984550 -0.406207 -0.000000 -4.431030 -1.003970 3.556930 16.377300 -0.000001 -0.000001 5.499720 2.428910 -1.845430 6.456720 -0.000001 -0.000000 6.208310 2.914140 0.089717 12.994200 -0.242716 4.980390 -92.551500 7.833290 -71.894400 5.348090 -0.000007 -0.000001 -73.274800 32.427600 1.618930 24.328600 0.000019 0.000005 12.481400 27.597900 -25.539000 22.291600 -0.000001 0.000005 -3.251070 4.962400 8.109090 12.994500 -0.242716 -4.980390 88.453600 4.765880 -71.999400 -5.348130 -0.000001 -0.000004 -68.433000 14.663000 0.550361 -24.328900 0.000322 -0.000009 3.203300 4.561870 -35.141800 -22.291500 -0.000108 -0.000004 -1.595680 5.114190 4.786580 -2.192480 -6.469440 -0.000000 -177.868000 -1.577080 -3.999440 39.081100 -0.000007 -0.000012 0.158819 -0.497625 17.701000 40.985400 -0.000006 -0.000013 3.000120 7.628930 -69.791100 11.754300 -0.000000 0.000003 0.000462 0.159449 -10.110000 -2.192510 6.469440 -0.000001 -176.132000 4.395820 179.637000 -39.081100 -0.002282 -0.040193 0.009648 -0.030140 11.828300 -40.985400 0.000008 0.000006 -3.482480 2.511240 -66.948000 -11.754300 -0.000006 -0.000006 -0.010445 0.274597 -5.416330
0.000000 0.000000 0.000000 0.000000 0.000000 -0.000000 0.187869 93.290100 -2.267980 87.378400 -1.493000 -0.205170 15.735700 0.000005 -0.000001 75.274900 88.243600 -73.464000 8.984550 -0.406207 -0.000000 -4.349200 -1.083560 3.583000 16.377300 -0.000001 -0.000001 5.520550 2.433950 -1.509770 6.456720 -0.000001 -0.000000 6.131500 3.145450 0.446754 12.994200 -0.242716 4.980390 -92.548300 7.852200 -71.956500 5.348090 -0.000007 -0.000001 -73.254100 32.421300 1.635380 24.328600 0.000019 0.000005 12.540000 27.696200 -25.573800 22.291600 -0.000001 0.000005 -3.236680 4.960170 8.155050 12.994500 -0.242716 -4.980390 88.445300 4.749730 -71.852000 -5.348130 -0.000001 -0.000004 -67.566900 12.221900 0.861437 -24.328900 0.000322 -0.000009 3.575000 4.207460 -40.423900 -22.291500 -0.000108 -0.000004 -1.622120 5.076390 5.649430 -2.192480 -6.469440 -0.000000 -177.814000 -1.535590 -3.960900 39.081100 -0.000007 -0.000012 0.157919 -0.495584 17.674900 40.985400 -0.000006 -0.000013 2.900070 7.585620 -69.831700 11.754300 -0.000000 0.000003 0.000208 0.164047 -9.923320 -2.192510 6.469440 -0.000001 -176.084000 4.411640 179.679000 -39.081100 -0.002282 -0.040193 0.009442 -0.029243 11.794600 -40.985400 0.000008 0.000006 -3.456660 2.561420 -66.912600 -11.754300 -0.000006 -0.000006 -0.010233 0.273038 -5.480100
0.000000 0.000000 0.000000 0.000000 0.000000 -0.000000 0.062613 93.275800 -2.304130 87.404300 -1.559160 -0.224098 15.735700 0.000005 -0.000001 74.277800 88.221200 -72.438500 8.984550 -0.406207 -0.000000 -4.320740 -1.157140 3.637040 16.377300 -0.000001 -0.000001 5.596390 2.454280 -1.169690 6.456720 -0.000001 -0.000000 5.983360 3.370970 0.871384 12.994200 -0.242716 4.980390 -92.568100 7.901900 -71.931500 5.348090 -0.000007 -0.000001 -73.198200 32.512700 1.631430 24.328600 0.000019 0.000005 12.487500 27.627300 -25.528500 22.291600 -0.000001 0.000005 -3.288590 4.961880 8.119790 12.994500 -0.242716 -4.980390 88.475200 4.635860 -71.771200 -5.348130 -0.000001 -0.000004 -66.929200 9.229390 1.480770 -24.328900 0.000322 -0.000009 5.125160 4.736870 -47.367000 -22.291500 -0.000108 -0.000004 -2.062010 5.022680 6.834130 -2.192480 -6.469440 -0.000000 -177.767000 -1.474180 -4.064710 39.081100 -0.000007 -0.000012 0.159961 -0.498357 17.795700 40.985400 -0.000006 -0.000013 2.797800 7.457300 -69.795100 11.754300 -0.000000 0.000003 0.000318 0.162085 -10.003000 -2.192510 6.469440 -0.000001 -175.979000 4.413960 179.552000 -39.081100 -0.002282 -0.040193 0.012219 -0.041962 11.953600 -40.985400 0.000008 0.000006 -3.042110 2.521070 -67.041000 -11.754300 -0.000006 -0.000006 -0.010467 0.274758 -5.409720
0.000000 0.000000 0.000000 0.000000 0.000000 -0.000000 -0.090846 93.274400 -2.274150 87.418300 -1.506380 -0.112177 15.735700 0.000005 -0.000001 72.673500 88.155400 -70.806500 8.984550 -0.406207 -0.000000 -4.221030 -1.293050 3.688500 16.377300 -0.000001 -0.000001 5.657730 2.445290 -0.804453 6.456720 -0.000001 -0.000000 5.845630 3.564200 1.415490 12.994200 -0.242716 4.980390 -92.568200 7.887080 -71.899100 5.348090 -0.000007 -0.000001 -73.200800 32.567400 1.634120 24.328600 0.000019 0.000005 12.522900 27.645100 -25.580400 22.291600 -0.000001 0.000005 -3.429360 4.963040 8.095740 12.994500 -0.242716 -4.980390 88.480200 4.584820 -71.638700 -5.348130 -0.000001 -0.000004 -66.562600 5.420220 2.344160 -24.328900 0.000322 -0.000009 7.217750 4.952540 -55.722200 -22.291500 -0.000108 -0.000004 -2.595530 4.949850 8.367830 -2.192480 -6.469440 -0.000000 -177.684000 -1.209680 -3.922840 39.081100 -0.000007 -0.000012 0.159026 -0.495775 17.784600 40.985400 -0.000006 -0.000013 2.657080 7.278490 -69.833200 11.754300 -0.000000 0.000003 0.000304 0.162342 -9.992570 -2.192510 6.469440 -0.000001 -175.895000 4.407650 179.740000 -39.081100 -0.002282 -0.040193 0.011702 -0.039774 11.878200 -40.985400 0.000008 0.000006 -2.941390 2.479180 -67.105200 -11.754300 -0.000006 -0.000006 -0.010953 0.278294 -5.265050
